<?xml version="1.0" standalone="no"?>
<!DOCTYPE svg PUBLIC "-//W3C//DTD SVG 20010904//EN"
 "http://www.w3.org/TR/2001/REC-SVG-20010904/DTD/svg10.dtd">
<svg version="1.0" xmlns="http://www.w3.org/2000/svg"
 width="1920.000000pt" height="1920.000000pt" viewBox="0 0 1920.000000 1920.000000"
 preserveAspectRatio="xMidYMid meet">

<g transform="translate(0.000000,1920.000000) scale(0.100000,-0.100000)"
fill="#000000" stroke="none">
<path d="M1548 14817 c-388 -592 -742 -1308 -986 -1992 -769 -2161 -738 -4548
87 -6682 711 -1841 1987 -3430 3636 -4530 1227 -818 2631 -1342 4095 -1527
747 -95 1560 -101 2315 -16 824 93 1656 301 2430 607 2622 1036 4663 3183
5566 5853 313 925 483 1910 501 2900 l3 165 -4805 5 -4805 5 -3975 2651
c-2186 1457 -3980 2653 -3985 2656 -6 4 -40 -40 -77 -95z"/>
</g>
</svg>
